<svg width="94" height="24" viewBox="0 0 94 24" fill="none" xmlns="http://www.w3.org/2000/svg">
<path fill-rule="evenodd" clip-rule="evenodd" d="M16.4083 0.24C15.7148 0.644816 15.6027 1.01069 15.6027 2.87143V4.53061L17.8728 4.53012C19.9124 4.52976 20.1852 4.50502 20.5597 4.28633C21.3526 3.82359 21.4847 3.44314 21.4852 1.62245L21.4857 0L19.1517 0.000489994C17.0623 0.000857341 16.7747 0.0259591 16.4083 0.24ZM4.75525 5.23469L4.79592 8.02041L5.15465 8.60474C5.35199 8.92616 5.7505 9.33943 6.0403 9.5231L6.56721 9.85714L10.5095 9.89278L14.4517 9.92841L14.4509 7.38257C14.4506 5.89959 14.3912 4.63225 14.3087 4.34694C14.2211 4.044 13.9408 3.64053 13.574 3.28935C13.2072 2.93816 12.7858 2.66976 12.4694 2.58588C12.1512 2.50163 10.5891 2.45008 8.3362 2.44971L4.71471 2.44898L4.75525 5.23469ZM17.4863 5.79416C16.8045 5.99865 16.1278 6.55788 15.8478 7.1482C15.6381 7.59012 15.608 7.97731 15.6055 10.2551L15.6027 12.8571H19.2072C22.6019 12.8571 22.8439 12.8422 23.3638 12.6012C24.1028 12.2587 24.6441 11.6033 24.8152 10.8437C24.8972 10.4798 24.9383 9.29069 24.9147 7.95918L24.8748 5.69388L21.4218 5.67171C19.0628 5.65653 17.8159 5.69535 17.4863 5.79416ZM0.0936164 11.094C0.0420762 11.1433 0 12.8727 0 14.9369C0 19.0708 0.0647129 19.5323 0.784229 20.5337C1.25423 21.1878 1.84931 21.6253 2.67958 21.9274C3.28361 22.1471 3.70846 22.1633 8.89764 22.1633H14.4673L14.4275 18.0918L14.3878 14.0204L14.0322 13.3272C13.6058 12.496 12.8835 11.8417 11.9092 11.4043L11.1905 11.0816L5.68885 11.0431C2.66295 11.0218 0.145157 11.0448 0.0936164 11.094ZM77.6794 11.7857C77.8587 12.6628 78.6406 13.2356 79.669 13.2432C80.7773 13.2514 81.5361 12.7038 81.7736 11.7245C81.8542 11.3923 81.8469 11.3878 81.2271 11.3878C80.6709 11.3878 80.5904 11.4213 80.5221 11.6816C80.3548 12.32 79.1617 12.3306 78.9097 11.6961C78.8031 11.4277 78.7104 11.3878 78.1927 11.3878H77.598L77.6794 11.7857ZM44.3406 13.4237C44.291 13.4712 44.2503 13.7214 44.2503 13.9796C44.2503 14.3644 44.2051 14.449 43.9994 14.449C43.4981 14.449 42.3541 14.9547 41.8998 15.3771C41.1687 16.057 40.889 16.6927 40.8267 17.8163C40.713 19.8705 41.7655 21.1691 43.8986 21.6061C44.2108 21.67 44.2503 21.733 44.2503 22.1656V22.6531H45.2735H46.2966V22.1656C46.2966 21.733 46.3361 21.67 46.6483 21.6061C48.6625 21.1935 49.7497 19.922 49.7497 17.9791C49.7497 16.5093 48.8286 15.1762 47.479 14.6927C47.1047 14.5587 46.689 14.449 46.5549 14.449C46.3598 14.449 46.3035 14.3455 46.2719 13.9286L46.2327 13.4082L45.3318 13.3727C44.8363 13.3532 44.3904 13.3762 44.3406 13.4237ZM18.7848 14.1735C18.2887 15.3944 15.9143 22.1759 15.9657 22.2251C16.0006 22.2584 16.4769 22.2857 17.0241 22.2857H18.0192L18.3182 21.3367L18.6172 20.3878L20.0881 20.3535L21.5591 20.3192L21.8817 21.2718L22.2041 22.2245L23.2518 22.26C24.0329 22.2866 24.2993 22.2561 24.2993 22.1401C24.2993 22.0545 23.6281 20.1513 22.8079 17.9106L21.3164 13.8367H20.1189C18.9311 13.8367 18.9205 13.8394 18.7848 14.1735ZM26.6001 13.9898C26.596 14.4621 26.0785 19.5801 26.0088 19.8367C25.8904 20.2735 25.6084 20.5456 25.1813 20.6355C24.8193 20.7115 24.8109 20.7313 24.8109 21.5038V22.2942L25.4823 22.2159C26.7897 22.0637 27.4419 21.5213 27.8181 20.273C27.9578 19.8097 28.3872 16.2492 28.3913 15.5204C28.3916 15.47 28.8801 15.4286 29.4769 15.4286H30.5619L30.5959 18.8265L30.6299 22.2245H31.5891H32.5483L32.5819 18.0306L32.6156 13.8367H29.6085C27.2888 13.8367 26.6011 13.8718 26.6001 13.9898ZM33.8912 18.0612V22.2857H36.9025H39.9137L39.8759 21.4592L39.8381 20.6327L37.8238 20.599L35.8095 20.5652V19.65V18.7347H37.7279H39.6463V18V17.2653H37.7279H35.8095V16.3469V15.4286H37.8558H39.902V14.6327V13.8367H36.8966H33.8912V18.0612ZM53.2027 14.6327V15.4286H54.4796H55.7564L55.7905 18.8265L55.8245 22.2245H56.7837H57.7429L57.7769 18.8265L57.8109 15.4286H59.0878H60.3646V14.6327V13.8367H56.7837H53.2027V14.6327ZM61.2902 18.0306L61.3238 22.2245H62.283H63.2422L63.2784 20.8469L63.3146 19.4694H64.4146C65.8309 19.4694 66.4429 19.2873 67.0815 18.6759C67.9052 17.8872 68.1579 16.5137 67.669 15.4829C67.3614 14.8346 66.5044 14.1418 65.7999 13.9719C65.4914 13.8976 64.3431 13.8367 63.2478 13.8367H61.2565L61.2902 18.0306ZM68.9333 18.0634V22.2902L71.9068 22.2573L74.8803 22.2245V21.4286V20.6327L72.866 20.599L70.8517 20.5652V19.65V18.7347H72.7061H74.5605V18V17.2653H72.7061H70.8517V16.3469V15.4286H72.898H74.9442V14.6327V13.8367H71.9388H68.9333V18.0634ZM76.0255 13.9908C75.9915 14.0754 75.979 15.9627 75.9975 18.1847L76.0313 22.2245L77.0612 22.2596L78.0912 22.2949L79.5067 20.1168C80.2852 18.9189 81.0878 17.6575 81.2903 17.3138L81.6585 16.6889V19.4567V22.2245H82.6177H83.5769L83.6105 18.0306L83.6441 13.8367H82.587H81.5298L81.0283 14.602C80.7523 15.023 79.9611 16.244 79.27 17.3154L78.0136 19.2636V16.5501V13.8367H77.0505C76.3948 13.8367 76.0675 13.886 76.0255 13.9908ZM86.7818 14.4796C86.7408 14.8331 86.647 15.8368 86.5735 16.7101C86.3196 19.7264 85.9045 20.6939 84.8642 20.6939H84.536V22.3469V24H85.4952H86.4544V23.1429V22.2857H89.268H92.0816V23.1429V24H93.0408H94V22.3469V20.6939H93.4884H92.9769V17.2653V13.8367H89.9167H86.8565L86.7818 14.4796ZM65.5598 15.8165C65.801 16.0474 65.8998 16.2742 65.9092 16.6194C65.9349 17.556 65.296 17.9978 63.9136 17.9993L63.3061 18V16.7009V15.4018L64.2649 15.4482C65.0946 15.4883 65.2689 15.5378 65.5598 15.8165ZM91.0585 18.0612V20.6939H89.3478H87.6372L87.9348 19.909C88.2141 19.1722 88.382 18.2055 88.5695 16.2551L88.6489 15.4286H89.8538H91.0585V18.0612ZM20.5648 17.3134C20.79 18.0808 20.9741 18.742 20.9741 18.7828C20.9741 18.8237 20.5666 18.8571 20.0683 18.8571C19.3961 18.8571 19.1782 18.8176 19.2236 18.7041C19.2572 18.62 19.4488 17.9586 19.6492 17.2347C19.8497 16.5108 20.0457 15.9184 20.0845 15.9184C20.1235 15.9184 20.3397 16.5462 20.5648 17.3134ZM44.2503 18.0582V20.0755L43.8989 19.9477C43.1026 19.6578 42.7156 19.0114 42.7156 17.9715C42.7156 17.158 43.0424 16.5393 43.6218 16.2553C43.8619 16.1376 44.1016 16.0411 44.1544 16.0411C44.2072 16.0409 44.2503 16.9487 44.2503 18.0582ZM47.149 16.3719C47.748 16.7467 48.0243 18.1834 47.6571 19.0141C47.4526 19.4769 47.1354 19.7702 46.648 19.9477L46.2966 20.0755V18.05V16.0243L46.5844 16.1115C46.7427 16.1593 46.9967 16.2765 47.149 16.3719Z" fill="#26358C"/>
</svg>
