<svg width="84" height="14" viewBox="0 0 84 14" fill="none" xmlns="http://www.w3.org/2000/svg">
<path d="M2.31179 11H0.34304L3.92756 0.818182H6.20455L9.79403 11H7.82528L5.10582 2.90625H5.02628L2.31179 11ZM2.37642 7.00781H7.74574V8.48935H2.37642V7.00781ZM10.5286 11L10.5186 9.51847H10.7821C10.981 9.51847 11.1484 9.47372 11.2843 9.38423C11.4202 9.29474 11.5328 9.1456 11.6223 8.93679C11.7118 8.72467 11.7814 8.43963 11.8311 8.08168C11.8809 7.72372 11.9157 7.27794 11.9355 6.74432L12.0698 3.36364H17.638V11H15.8979V4.8402H13.7054L13.5861 7.30114C13.5563 7.9375 13.485 8.48935 13.3723 8.95668C13.263 9.42069 13.1072 9.8035 12.905 10.1051C12.7061 10.4067 12.4559 10.6321 12.1543 10.7812C11.8527 10.9271 11.4964 11 11.0854 11H10.5286ZM22.8308 11.1491C22.0652 11.1491 21.4039 10.9901 20.8471 10.6719C20.2936 10.3504 19.8677 9.89631 19.5694 9.30966C19.2711 8.7197 19.122 8.02533 19.122 7.22656C19.122 6.44105 19.2711 5.75166 19.5694 5.15838C19.871 4.56179 20.292 4.09777 20.8322 3.76633C21.3725 3.43158 22.0072 3.2642 22.7363 3.2642C23.207 3.2642 23.6511 3.34044 24.0687 3.4929C24.4896 3.64205 24.8609 3.87405 25.1824 4.18892C25.5072 4.50379 25.7624 4.90483 25.948 5.39205C26.1336 5.87595 26.2264 6.45265 26.2264 7.12216V7.67401H19.9672V6.46094H24.5012C24.4979 6.11624 24.4234 5.80966 24.2775 5.54119C24.1317 5.26941 23.9279 5.05563 23.666 4.89986C23.4075 4.74408 23.1059 4.66619 22.7612 4.66619C22.3933 4.66619 22.0701 4.75568 21.7917 4.93466C21.5133 5.11032 21.2962 5.34233 21.1404 5.63068C20.988 5.91572 20.9101 6.22893 20.9068 6.57031V7.62926C20.9068 8.07339 20.988 8.45455 21.1504 8.77273C21.3128 9.08759 21.5398 9.32955 21.8315 9.49858C22.1232 9.6643 22.4645 9.74716 22.8556 9.74716C23.1175 9.74716 23.3545 9.7107 23.5666 9.63778C23.7787 9.56155 23.9627 9.45052 24.1184 9.30469C24.2742 9.15885 24.3919 8.97822 24.4714 8.76278L26.1518 8.9517C26.0458 9.39583 25.8436 9.78362 25.5453 10.1151C25.2503 10.4432 24.8725 10.6984 24.4118 10.8807C23.9511 11.0597 23.4241 11.1491 22.8308 11.1491ZM31.2141 13.5952V0.818182H33.0188V13.5952H31.2141ZM31.2141 11.1491C30.654 11.1491 30.1419 11.0547 29.6779 10.8658C29.2139 10.6768 28.8129 10.4084 28.4748 10.0604C28.14 9.71236 27.8799 9.29806 27.6942 8.81747C27.512 8.33357 27.4208 7.7983 27.4208 7.21165C27.4208 6.625 27.512 6.08973 27.6942 5.60582C27.8799 5.12192 28.14 4.70597 28.4748 4.35795C28.8129 4.00663 29.2139 3.73651 29.6779 3.54758C30.1419 3.35866 30.654 3.2642 31.2141 3.2642H31.5969V11.1491H31.2141ZM31.2141 9.69744H31.4379V4.71591H31.2141C30.896 4.71591 30.6142 4.7822 30.369 4.91477C30.127 5.04403 29.9232 5.22467 29.7575 5.45668C29.5951 5.68537 29.4708 5.95052 29.3846 6.25213C29.3017 6.55043 29.2603 6.87026 29.2603 7.21165C29.2603 7.66572 29.3349 8.08168 29.484 8.45952C29.6332 8.83404 29.8519 9.134 30.1403 9.35938C30.4319 9.58475 30.7899 9.69744 31.2141 9.69744ZM33.0188 11.1491H32.636V3.2642H33.0188C33.579 3.2642 34.091 3.35866 34.555 3.54758C35.0191 3.73651 35.4184 4.00663 35.7532 4.35795C36.0913 4.70597 36.3514 5.12192 36.5337 5.60582C36.7193 6.08973 36.8121 6.625 36.8121 7.21165C36.8121 7.7983 36.7193 8.33357 36.5337 8.81747C36.3514 9.29806 36.0913 9.71236 35.7532 10.0604C35.4184 10.4084 35.0191 10.6768 34.555 10.8658C34.091 11.0547 33.579 11.1491 33.0188 11.1491ZM33.0188 9.69744C33.3403 9.69744 33.622 9.63281 33.864 9.50355C34.1059 9.37429 34.3081 9.19531 34.4705 8.96662C34.6362 8.73793 34.7605 8.47443 34.8434 8.17614C34.9263 7.87453 34.9677 7.55303 34.9677 7.21165C34.9677 6.75758 34.8948 6.34162 34.7489 5.96378C34.6031 5.58594 34.3844 5.28433 34.0927 5.05895C33.8043 4.83026 33.4464 4.71591 33.0188 4.71591H32.7951V9.69744H33.0188ZM41.4357 2.36435V0.818182H49.5593V2.36435H46.4123V11H44.5827V2.36435H41.4357ZM50.2528 13.8636V3.36364H52.0227V4.62642H52.1271C52.2199 4.44081 52.3509 4.24361 52.5199 4.0348C52.6889 3.82268 52.9176 3.64205 53.206 3.4929C53.4943 3.34044 53.8622 3.2642 54.3097 3.2642C54.8996 3.2642 55.4316 3.41501 55.9055 3.71662C56.3828 4.01491 56.7607 4.45739 57.0391 5.04403C57.3208 5.62737 57.4616 6.34328 57.4616 7.19176C57.4616 8.0303 57.3241 8.7429 57.049 9.32955C56.7739 9.91619 56.3994 10.3636 55.9254 10.6719C55.4515 10.9801 54.9145 11.1342 54.3146 11.1342C53.8771 11.1342 53.5142 11.0613 53.2259 10.9155C52.9375 10.7696 52.7055 10.594 52.5298 10.3885C52.3575 10.1797 52.2232 9.98248 52.1271 9.79688H52.0526V13.8636H50.2528ZM52.0178 7.18182C52.0178 7.67566 52.0874 8.10819 52.2266 8.4794C52.3691 8.85062 52.5729 9.14062 52.8381 9.34943C53.1065 9.55492 53.4313 9.65767 53.8125 9.65767C54.2102 9.65767 54.5433 9.55161 54.8118 9.33949C55.0803 9.12405 55.2824 8.83073 55.4183 8.45952C55.5575 8.08499 55.6271 7.65909 55.6271 7.18182C55.6271 6.70786 55.5592 6.28693 55.4233 5.91903C55.2874 5.55114 55.0852 5.26278 54.8168 5.05398C54.5483 4.84517 54.2135 4.74077 53.8125 4.74077C53.428 4.74077 53.1016 4.84186 52.8331 5.04403C52.5646 5.24621 52.3608 5.52959 52.2216 5.89418C52.0857 6.25876 52.0178 6.68797 52.0178 7.18182ZM62.3835 11.1491C61.6179 11.1491 60.9567 10.9901 60.3999 10.6719C59.8464 10.3504 59.4205 9.89631 59.1222 9.30966C58.8239 8.7197 58.6747 8.02533 58.6747 7.22656C58.6747 6.44105 58.8239 5.75166 59.1222 5.15838C59.4238 4.56179 59.8447 4.09777 60.3849 3.76633C60.9252 3.43158 61.5599 3.2642 62.2891 3.2642C62.7597 3.2642 63.2038 3.34044 63.6214 3.4929C64.0424 3.64205 64.4136 3.87405 64.7351 4.18892C65.0599 4.50379 65.3151 4.90483 65.5007 5.39205C65.6863 5.87595 65.7791 6.45265 65.7791 7.12216V7.67401H59.5199V6.46094H64.054C64.0507 6.11624 63.9761 5.80966 63.8303 5.54119C63.6844 5.26941 63.4806 5.05563 63.2188 4.89986C62.9602 4.74408 62.6586 4.66619 62.3139 4.66619C61.946 4.66619 61.6229 4.75568 61.3445 4.93466C61.0661 5.11032 60.849 5.34233 60.6932 5.63068C60.5407 5.91572 60.4628 6.22893 60.4595 6.57031V7.62926C60.4595 8.07339 60.5407 8.45455 60.7031 8.77273C60.8655 9.08759 61.0926 9.32955 61.3842 9.49858C61.6759 9.6643 62.0173 9.74716 62.4084 9.74716C62.6702 9.74716 62.9072 9.7107 63.1193 9.63778C63.3314 9.56155 63.5154 9.45052 63.6712 9.30469C63.8269 9.15885 63.9446 8.97822 64.0241 8.76278L65.7045 8.9517C65.5985 9.39583 65.3963 9.78362 65.098 10.1151C64.803 10.4432 64.4252 10.6984 63.9645 10.8807C63.5038 11.0597 62.9768 11.1491 62.3835 11.1491ZM69.0368 8.56392L72.0943 3.36364H73.9437V11H72.2037V5.79474L69.1561 11H67.3017V3.36364H69.0368V8.56392ZM71.6021 0.738636H72.9494C72.9494 1.31865 72.7389 1.7893 72.318 2.15057C71.9004 2.50852 71.3336 2.6875 70.6177 2.6875C69.9084 2.6875 69.3433 2.50852 68.9224 2.15057C68.5048 1.7893 68.2976 1.31865 68.301 0.738636H69.6383C69.6383 0.977273 69.7112 1.19105 69.8571 1.37997C70.0062 1.56558 70.2598 1.65838 70.6177 1.65838C70.969 1.65838 71.2193 1.56558 71.3684 1.37997C71.5209 1.19437 71.5988 0.980587 71.6021 0.738636ZM75.1158 13.2173V9.51847H75.7223C75.8847 9.39252 76.0206 9.22183 76.13 9.00639C76.2393 8.78764 76.3288 8.53078 76.3984 8.2358C76.4714 7.9375 76.531 7.6044 76.5774 7.23651C76.6238 6.86529 76.6652 6.46591 76.7017 6.03835L76.9205 3.36364H82.4389V9.51847H83.6222V13.2173H81.8821V11H76.8857V13.2173H75.1158ZM77.5717 9.51847H80.7188V4.81534H78.4815L78.3622 6.03835C78.2959 6.84706 78.2081 7.53977 78.0987 8.11648C77.9893 8.69318 77.8137 9.16051 77.5717 9.51847Z" fill="#26358C"/>
</svg>
