<svg width="52" height="53" viewBox="0 0 52 53" fill="none" xmlns="http://www.w3.org/2000/svg">
<g filter="url(#filter0_d_308_1663)">
<rect x="2" y="1.18701" width="48" height="48" rx="10" fill="white"/>
<rect x="2.5" y="1.68701" width="47" height="47" rx="9.5" stroke="#EAECF0"/>
<path d="M19.121 30.9908C21.1527 29.8424 23.4998 29.187 26 29.187C28.5002 29.187 30.8473 29.8424 32.879 30.9907M29 23.187C29 24.8439 27.6569 26.187 26 26.187C24.3431 26.187 23 24.8439 23 23.187C23 21.5302 24.3431 20.187 26 20.187C27.6569 20.187 29 21.5302 29 23.187ZM35 25.187C35 30.1576 30.9706 34.187 26 34.187C21.0294 34.187 17 30.1576 17 25.187C17 20.2164 21.0294 16.187 26 16.187C30.9706 16.187 35 20.2164 35 25.187Z" stroke="#344054" stroke-width="2" stroke-linecap="round" stroke-linejoin="round"/>
</g>
<defs>
<filter id="filter0_d_308_1663" x="0" y="0.187012" width="52" height="52" filterUnits="userSpaceOnUse" color-interpolation-filters="sRGB">
<feFlood flood-opacity="0" result="BackgroundImageFix"/>
<feColorMatrix in="SourceAlpha" type="matrix" values="0 0 0 0 0 0 0 0 0 0 0 0 0 0 0 0 0 0 127 0" result="hardAlpha"/>
<feOffset dy="1"/>
<feGaussianBlur stdDeviation="1"/>
<feColorMatrix type="matrix" values="0 0 0 0 0.0627451 0 0 0 0 0.0941176 0 0 0 0 0.156863 0 0 0 0.05 0"/>
<feBlend mode="normal" in2="BackgroundImageFix" result="effect1_dropShadow_308_1663"/>
<feBlend mode="normal" in="SourceGraphic" in2="effect1_dropShadow_308_1663" result="shape"/>
</filter>
</defs>
</svg>
