<svg width="26" height="26" viewBox="0 0 26 26" fill="none" xmlns="http://www.w3.org/2000/svg">
<rect width="26" height="26" rx="4.33333" fill="#26358C"/>
<path d="M16.6112 18.7777H20.2223V17.3333C20.2223 16.1367 19.2522 15.1666 18.0556 15.1666C17.3654 15.1666 16.7507 15.4893 16.3539 15.992M16.6112 18.7777H9.38894M16.6112 18.7777V17.3333C16.6112 16.8593 16.5199 16.4067 16.3539 15.992M9.38894 18.7777H5.77783V17.3333C5.77783 16.1367 6.74788 15.1666 7.9445 15.1666C8.63466 15.1666 9.24945 15.4893 9.64623 15.992M9.38894 18.7777V17.3333C9.38894 16.8593 9.48025 16.4067 9.64623 15.992M9.64623 15.992C10.1787 14.6618 11.4796 13.7222 13.0001 13.7222C14.5205 13.7222 15.8214 14.6618 16.3539 15.992M15.1667 9.38883C15.1667 10.5855 14.1967 11.5555 13.0001 11.5555C11.8034 11.5555 10.8334 10.5855 10.8334 9.38883C10.8334 8.19222 11.8034 7.22217 13.0001 7.22217C14.1967 7.22217 15.1667 8.19222 15.1667 9.38883ZM19.5001 11.5555C19.5001 12.3532 18.8534 12.9999 18.0556 12.9999C17.2579 12.9999 16.6112 12.3532 16.6112 11.5555C16.6112 10.7578 17.2579 10.1111 18.0556 10.1111C18.8534 10.1111 19.5001 10.7578 19.5001 11.5555ZM9.38894 11.5555C9.38894 12.3532 8.74224 12.9999 7.9445 12.9999C7.14675 12.9999 6.50005 12.3532 6.50005 11.5555C6.50005 10.7578 7.14675 10.1111 7.9445 10.1111C8.74224 10.1111 9.38894 10.7578 9.38894 11.5555Z" stroke="#F3F7FA" stroke-width="1.44" stroke-linecap="round" stroke-linejoin="round"/>
</svg>
