<svg width="25" height="25" viewBox="0 0 25 25" fill="none" xmlns="http://www.w3.org/2000/svg">
<path d="M14.8326 7.74282C14.659 7.91986 14.5618 8.15789 14.5618 8.4058C14.5618 8.65371 14.659 8.89174 14.8326 9.06879L16.348 10.5842C16.525 10.7577 16.763 10.8549 17.0109 10.8549C17.2589 10.8549 17.4969 10.7577 17.6739 10.5842L21.2446 7.01354C21.7208 8.06597 21.865 9.23854 21.658 10.375C21.4509 11.5115 20.9024 12.5578 20.0856 13.3747C19.2687 14.1915 18.2224 14.74 17.0859 14.9471C15.9494 15.1541 14.7769 15.0099 13.7244 14.5337L7.17983 21.0783C6.80304 21.4551 6.29201 21.6667 5.75915 21.6667C5.22629 21.6667 4.71525 21.4551 4.33847 21.0783C3.96168 20.7015 3.75 20.1905 3.75 19.6576C3.75 19.1247 3.96168 18.6137 4.33847 18.2369L10.8831 11.6923C10.4068 10.6399 10.2626 9.4673 10.4697 8.33084C10.6768 7.19438 11.2253 6.14801 12.0421 5.33118C12.8589 4.51435 13.9053 3.96586 15.0417 3.75879C16.1782 3.55173 17.3508 3.69593 18.4032 4.17217L14.842 7.73335L14.8326 7.74282Z" fill="white" stroke="#26358C" stroke-width="2" stroke-linecap="round"/>
</svg>
