<svg width="26" height="26" viewBox="0 0 26 26" fill="none" xmlns="http://www.w3.org/2000/svg">
<rect width="26" height="26" rx="4.33333" fill="#26358C"/>
<path d="M13.7222 15.8888V8.66656C13.7222 8.26769 13.3989 7.94434 13 7.94434H7.22222C6.82335 7.94434 6.5 8.26769 6.5 8.66656V15.8888C6.5 16.2877 6.82335 16.611 7.22222 16.611H7.94444M13.7222 15.8888C13.7222 16.2877 13.3989 16.611 13 16.611H10.8333M13.7222 15.8888L13.7222 10.111C13.7222 9.71213 14.0456 9.38878 14.4444 9.38878H16.312C16.5035 9.38878 16.6872 9.46487 16.8226 9.60031L19.2885 12.0661C19.4239 12.2016 19.5 12.3853 19.5 12.5768V15.8888C19.5 16.2877 19.1767 16.611 18.7778 16.611H18.0556M13.7222 15.8888C13.7222 16.2877 14.0456 16.611 14.4444 16.611H15.1667M7.94444 16.611C7.94444 17.4087 8.59114 18.0554 9.38889 18.0554C10.1866 18.0554 10.8333 17.4087 10.8333 16.611M7.94444 16.611C7.94444 15.8133 8.59114 15.1666 9.38889 15.1666C10.1866 15.1666 10.8333 15.8133 10.8333 16.611M15.1667 16.611C15.1667 17.4087 15.8134 18.0554 16.6111 18.0554C17.4089 18.0554 18.0556 17.4087 18.0556 16.611M15.1667 16.611C15.1667 15.8133 15.8134 15.1666 16.6111 15.1666C17.4089 15.1666 18.0556 15.8133 18.0556 16.611" stroke="#F3F7FA" stroke-width="1.44"/>
</svg>
