<svg width="88" height="83" viewBox="0 0 88 83" fill="none" xmlns="http://www.w3.org/2000/svg">
<path fill-rule="evenodd" clip-rule="evenodd" d="M1.24455 0.344974C0.936375 0.533975 0.53075 0.942064 0.342891 1.25211C0.0180469 1.78816 0.00120312 2.13469 0.0006875 8.34335C0.00034375 11.9337 0.0376406 14.871 0.0837031 14.871C0.162937 14.871 19.496 0.466882 19.843 0.149402C19.9349 0.0653635 16.0284 0.000345788 10.9055 0.000691627C2.12747 0.00121038 1.78475 0.0134878 1.24455 0.344974ZM18.1285 7.7115C12.459 11.9529 7.78817 15.4545 7.74864 15.4929C7.70928 15.5313 10.4613 15.5627 13.8645 15.5627H20.0518L30.2495 7.86817C35.8581 3.63632 40.486 0.134704 40.5335 0.0868056C40.5809 0.0390799 37.8785 0 34.5281 0H28.4365L18.1285 7.7115ZM38.8443 7.69456C33.2356 11.9264 28.6077 15.428 28.5603 15.4759C28.5129 15.5236 31.2195 15.5627 34.5754 15.5627H40.6768L50.8745 7.86817C56.4831 3.63632 61.111 0.134704 61.1585 0.0868056C61.2059 0.0390799 58.4992 0 55.1433 0H49.042L38.8443 7.69456ZM59.4693 7.69456C53.8606 11.9264 49.2327 15.428 49.1853 15.4759C49.1379 15.5236 51.8427 15.5627 55.1961 15.5627H61.2932L71.5882 7.86108C77.2504 3.62525 81.9189 0.123637 81.9624 0.0797158C82.006 0.0357943 79.2574 0 75.8543 0H69.667L59.4693 7.69456ZM78.7994 8.75075C73.8867 12.4225 69.835 15.4572 69.7955 15.4946C69.7562 15.5321 73.8361 15.5627 78.8619 15.5627H88V8.81888C88 5.10976 87.9397 2.07503 87.8658 2.07503C87.792 2.07503 83.7121 5.07916 78.7994 8.75075ZM0.0006875 50.9679C0.00120312 80.8153 0.00549999 81.1925 0.342891 81.7491C0.53075 82.0591 0.936375 82.4672 1.24455 82.6562C1.79953 82.9967 2.19828 83 44 83C85.8017 83 86.2005 82.9967 86.7555 82.6562C87.0636 82.4672 87.4693 82.0591 87.6571 81.7491C87.9945 81.1925 87.9988 80.8153 87.9993 50.9679L88 20.7503H44H0L0.0006875 50.9679ZM47.6931 39.206C54.8787 43.5381 60.9718 47.2818 61.2332 47.5255C61.8545 48.1046 62.116 49.0734 61.8843 49.9387C61.7877 50.2998 61.4946 50.7947 61.2332 51.0385C60.9718 51.2821 54.8422 55.0478 47.6123 59.4067C35.1787 66.9028 34.4223 67.3321 33.6468 67.3321C32.7613 67.3321 32.176 67.0055 31.5497 66.1615C31.1987 65.6887 31.1948 65.5315 31.1441 49.9178C31.1159 41.2464 31.1405 33.8176 31.1988 33.4094C31.398 32.0115 32.6764 31.0305 34.029 31.2377C34.4046 31.2951 39.5048 34.2695 47.6931 39.206ZM36.2656 49.282V60.3317L45.3693 54.85C50.3762 51.8351 54.4729 49.3295 54.4729 49.282C54.4729 49.2344 50.3762 46.7288 45.3693 43.714L36.2656 38.2323V49.282Z" fill="white" fill-opacity="0.45"/>
</svg>
