<svg width="22" height="21" viewBox="0 0 22 21" fill="none" xmlns="http://www.w3.org/2000/svg">
<path d="M9.79896 1.92664C10.0983 1.00537 11.4017 1.00538 11.701 1.92664L13.2199 6.60055C13.3538 7.01254 13.7377 7.29148 14.1709 7.29149L19.0854 7.29168C20.0541 7.29172 20.4568 8.53127 19.6732 9.10067L15.6974 11.9895C15.3469 12.2441 15.2003 12.6955 15.3341 13.1075L16.8526 17.7815C17.1519 18.7028 16.0975 19.4689 15.3138 18.8995L11.3378 16.011C10.9873 15.7564 10.5127 15.7564 10.1622 16.011L6.18622 18.8995C5.40252 19.4689 4.3481 18.7028 4.6474 17.7815L6.16589 13.1075C6.29974 12.6955 6.15309 12.2441 5.80263 11.9895L1.82683 9.10067C1.04317 8.53127 1.44592 7.29172 2.41461 7.29168L7.32911 7.29149C7.76231 7.29148 8.14623 7.01254 8.28011 6.60055L9.79896 1.92664Z" stroke="#26358C" stroke-width="2"/>
</svg>
